<?xml version="1.0" encoding="UTF-8"?>
<svg id="Layer_1" data-name="Layer 1" xmlns="http://www.w3.org/2000/svg" viewBox="0 0 238.57 238.52">
  <defs>
    <style>
      .cls-1, .cls-2 {
        stroke-width: 0px;
      }

      .cls-2 {
        fill: #fff;
      }
    </style>
  </defs>
  <path class="cls-1" d="m0,215.23c1.33-6.49,5.49-11.02,10.13-15.42,18.76-17.79,37.37-35.74,56.05-53.62.5-.48,1.09-.86,1.68-1.33-8-12.3-12.99-25.36-14.85-39.6-1.86-14.16-.44-28,4.03-41.84-1.03-.05-1.83-.11-2.64-.12-11.18,0-22.36.07-33.54-.04-7.35-.07-13.63-5.22-15.2-12.14-1.63-7.23,1.58-14.93,8.4-17.61,3.96-1.56,5.51-3.89,6.99-7.58,7.16-17.84,30.49-22.22,43.93-8.42,1.37,1.4,2.62,2.22,4.71,2.26,4.57.08,8.57,1.93,12.17,5.14.66-.55,1.3-1.06,1.92-1.6C102.7,6.93,124.71-.88,149.71.08c43.32,1.66,80.39,34.55,87.51,77.49,3.67,22.11-.14,42.91-11.27,62.35-.71,1.25-.55,2.08-.06,3.36.95,2.46,2.51,3.84,4.88,5.03,6.09,3.06,8.96,10.11,7.33,16.81-1.59,6.55-7.58,11.38-14.42,11.42-11.57.07-23.14,0-34.71.06-1.19,0-2.47.28-3.55.76-30.93,13.75-60.88,11.91-89.89-5.52-.52-.31-1.06-.61-1.06-.26-3.02,2.68-6.24,5.16-9.03,8.06-15.59,16.14-31.14,32.31-46.57,48.61-4.44,4.69-9,8.96-15.58,10.29h-6.06c-.5-.17-.98-.37-1.49-.51-7.44-1.98-12.46-6.54-14.86-13.9-.31-.94-.59-1.89-.89-2.83,0-2.02,0-4.04,0-6.06Zm201.03-88.11c.48-.8.94-1.51,1.34-2.24,4.39-7.9,6.99-16.34,7.91-25.35,3.04-29.65-15.12-58.23-43.32-67.9-17.55-6.01-34.65-4.71-51.27,3.44-3.08,1.51-5.74.82-7-1.72-1.26-2.54-.18-5.07,2.86-6.6,15.53-7.79,31.87-10.11,48.87-6.61,49.77,10.24,74.85,66.25,49.5,110.33-.4.7-.81,1.4-1.18,2.05,3.21.79,6.18,1.52,9.22,2.26,16.94-27.46,16.61-70.75-13.19-100.78C175.51,4.51,129.22,1.01,95.57,25.73c-33.48,24.6-43.87,70.24-24.05,107.02,20.13,37.36,59.57,47.82,85.12,43.2-3.67-1.5-6.67-3.52-8.55-6.78-.69-1.19-1.52-1.38-2.77-1.53-6.45-.76-13.08-.96-19.3-2.66-39.15-10.71-62.09-49.03-53.14-88.74,1.37-6.06,4.12-11.82,6.48-17.62,1.04-2.55,3.74-3.31,6.07-2.24,2.38,1.09,3.3,3.67,2.2,6.3-.39.93-.87,1.82-1.3,2.73-3.65,7.75-5.73,15.91-6.11,24.45-1.37,31.07,18.51,58.2,48.54,66.32,5.55,1.5,11.19,2.27,16.91,2.15,1.56-6.76,5.4-11.17,11.96-12.9,1.42-.37,1.97-.9,2.33-2.33,2.75-11.04,11.9-18.95,23.19-20.27,6.44-.75,12.29.9,17.87,4.26Zm-8.82,40.12c10.32,0,20.65.03,30.97-.01,3.41-.01,5.89-2.36,6.05-5.51.16-3.15-2.1-5.66-5.48-6.09-3.4-.44-4.39-1.4-5.08-4.98-1.1-5.73-5.56-9.06-11.3-8.1-3.1.52-5.1-.37-6.86-2.98-4.23-6.29-11.8-8.93-19.02-6.93-7.29,2.02-12.3,8.07-12.93,15.61-.4,4.79-1.62,5.79-6.36,6.09-1.75.11-3.67.75-5.11,1.73-2.13,1.45-2.67,4.53-1.76,6.96.96,2.57,3.33,4.2,6.37,4.2,10.17.03,20.34.01,30.51,0Zm-124.11,16.94c-4.64-4.62-9.16-9.13-13.76-13.72-2.61,2.49-5.41,5.17-8.21,7.85-10.99,10.52-21.98,21.04-32.95,31.58-4.23,4.06-5.06,9.58-2.21,14.15,3.87,6.19,12.14,7.01,17.41,1.58,9.19-9.47,18.27-19.04,27.4-28.57,4.18-4.37,8.37-8.73,12.32-12.85Zm7.24-152.52c-2.58-2.24-5.32-3.09-8.5-2.43-2.59.54-4.63.02-6.24-2.35-4.54-6.71-11.78-9.53-19.18-7.67-7.32,1.84-12.41,7.93-13.27,15.87-.52,4.86-1.57,5.82-6.43,5.89-4.26.07-7.25,2.81-7.18,6.58.07,3.7,3.01,6.4,7.14,6.41,12.49.03,24.98-.02,37.47.05,1.46,0,1.9-.72,2.56-1.77,3.67-5.91,7.44-11.77,11.23-17.61.66-1.02,1.52-1.9,2.4-2.98Zm-12.86,132.36c3.82,3.83,8.23,8.24,11.84,11.85,3.9-3.41,7.97-6.96,11.41-9.96-4.48-4.49-8.69-8.71-13.22-13.26-3.08,3.49-6.66,7.55-10.03,11.37Z"/>
  <path class="cls-2" d="m126.73,93.26c.06-2.48-1.94-4.62-4.42-4.74-2.57-.13-4.81,1.96-4.87,4.53-.06,2.47,1.95,4.63,4.42,4.75,2.56.13,4.8-1.96,4.86-4.53Zm23.3-.07c.02-2.48-2.01-4.59-4.49-4.67-2.57-.08-4.77,2.03-4.79,4.6-.02,2.48,2.01,4.59,4.49,4.68,2.56.09,4.77-2.04,4.79-4.61Zm18.6-4.67c-2.49.03-4.55,2.1-4.59,4.58-.03,2.57,2.13,4.74,4.7,4.7,2.57-.03,4.68-2.25,4.59-4.82-.09-2.48-2.21-4.5-4.7-4.47Zm-72.75-40.12c2.55.05,4.75-2.12,4.74-4.68-.01-2.48-2.07-4.55-4.56-4.6-2.52-.05-4.61,1.91-4.72,4.42-.11,2.57,1.98,4.81,4.54,4.86Z"/>
  <path class="cls-1" d="m126.73,93.26c-.06,2.57-2.31,4.66-4.86,4.53-2.48-.12-4.48-2.28-4.42-4.75.06-2.57,2.3-4.65,4.87-4.53,2.48.12,4.48,2.26,4.42,4.74Z"/>
  <path class="cls-1" d="m150.03,93.19c-.02,2.57-2.23,4.7-4.79,4.61-2.48-.08-4.51-2.2-4.49-4.68.02-2.57,2.22-4.69,4.79-4.6,2.49.08,4.51,2.19,4.49,4.67Z"/>
  <path class="cls-1" d="m168.63,88.52c2.49-.03,4.6,1.98,4.7,4.47.1,2.57-2.02,4.78-4.59,4.82-2.57.03-4.73-2.13-4.7-4.7.03-2.48,2.1-4.55,4.59-4.58Z"/>
  <path class="cls-1" d="m95.88,48.39c-2.56-.05-4.65-2.29-4.54-4.86.11-2.51,2.2-4.47,4.72-4.42,2.49.05,4.55,2.12,4.56,4.6.01,2.56-2.19,4.73-4.74,4.68Z"/>
</svg>