<svg width="25" height="25" viewBox="0 0 25 25" fill="none" xmlns="http://www.w3.org/2000/svg">
<path d="M12.5 15.1041C14.2259 15.1041 15.625 13.705 15.625 11.9791C15.625 10.2532 14.2259 8.8541 12.5 8.8541C10.7741 8.8541 9.375 10.2532 9.375 11.9791C9.375 13.705 10.7741 15.1041 12.5 15.1041Z" stroke="white" stroke-width="1.5625" stroke-linecap="round" stroke-linejoin="round"/>
<path d="M21.3613 16.927C20.5436 18.3124 19.6237 18.7083 17.886 18.1145C16.7617 17.7187 15.4329 18.4114 15.2285 19.5989C14.9218 21.3802 14.1041 21.8749 12.4687 21.8749C10.8333 21.8749 10.0155 21.2812 9.7089 19.5989C9.50448 18.4114 8.17569 17.7187 7.05134 18.1145C5.3137 18.7083 4.39378 18.3124 3.57607 16.927C2.75835 15.6406 3.065 14.552 4.39378 13.4635C5.3137 12.6718 5.21149 11.2864 4.29156 10.5937C2.96278 9.30724 2.86057 8.41662 3.67828 7.0312C4.49599 5.74474 5.51813 5.44787 7.15355 5.94266C8.27791 6.33849 9.50448 5.54682 9.7089 4.45828C10.1178 2.67703 10.8333 2.08328 12.5709 2.08328C14.1041 2.08328 14.9218 2.87495 15.2285 4.55724C15.4329 5.64578 16.7617 6.33849 17.886 5.94266C19.6237 5.24995 20.5436 5.64578 21.3613 7.0312C22.179 8.41662 22.0768 9.30724 20.6458 10.4947C19.7259 11.2864 19.7259 12.6718 20.6458 13.4635C22.0768 14.651 22.179 15.5416 21.3613 16.927Z" stroke="white" stroke-width="1.5625" stroke-linecap="round" stroke-linejoin="round"/>
</svg>
